# xmcd
#
# Track frame offsets: 
#        150
#        19207
#        36432
#        54702
#        71690
#        89682
#        108020
#        127147
#        146272
#        163877
#        181370
#        199875
#
# Disc length: 2903 seconds
#
# Revision: 0
# Processed by: cddbd v1.5.1PL0 Copyright (c) Steve Scherf et al.
# Submitted via: ExactAudioCopy v0.90b4
#
DISCID=b40b550c
DTITLE=Tia McGraff - Jewel's Cafe
DYEAR=1998
DGENRE=Country
TTITLE0=Jewel's Cafe
TTITLE1=Everytime I See You
TTITLE2=Where Do We Go
TTITLE3=If You're Lookin' For Love
TTITLE4=Blue Guitar
TTITLE5=The State I'm In
TTITLE6=Ghost Of '66
TTITLE7=Somebody Like You
TTITLE8=One Time For Old Times
TTITLE9=(I'll Let The) Wind Dry My Eyes
TTITLE10=Kinengan (Gypsy Queen)
TTITLE11=Baby I Want You
EXTD=
EXTT0=
EXTT1=
EXTT2=
EXTT3=
EXTT4=
EXTT5=
EXTT6=
EXTT7=
EXTT8=
EXTT9=
EXTT10=
EXTT11=
PLAYORDER=
